<svg width="68" height="16" viewBox="0 0 68 16" fill="none" xmlns="http://www.w3.org/2000/svg">
<path d="M6.68022 15.6489C7.4306 15.6489 8.15712 15.5534 8.85975 15.3624C9.56921 15.1714 10.2036 14.8848 10.763 14.5028C11.3224 14.114 11.7658 13.6262 12.0932 13.0396C12.4275 12.4461 12.5946 11.7537 12.5946 10.9624C12.5946 10.2188 12.4548 9.60485 12.1751 9.12051C11.9022 8.63617 11.5509 8.24733 11.1211 7.954C10.6982 7.65384 10.2548 7.4219 9.79091 7.25818C9.32704 7.08764 8.90409 6.95121 8.52208 6.84888L5.96394 6.15307C5.65014 6.07121 5.34316 5.96888 5.04301 5.84609C4.74285 5.7233 4.49386 5.56299 4.29603 5.36516C4.0982 5.16051 3.99929 4.89788 3.99929 4.57726C3.99929 4.22935 4.11867 3.92919 4.35743 3.67679C4.60301 3.42439 4.91681 3.23338 5.29882 3.10377C5.68766 2.96733 6.10037 2.90594 6.53696 2.91958C7.20549 2.94005 7.81944 3.13788 8.37882 3.51307C8.9382 3.88826 9.29975 4.434 9.46347 5.15028L12.4718 4.63865C12.1171 3.25384 11.4281 2.19307 10.4049 1.45633C9.38161 0.719583 8.10595 0.340979 6.57789 0.320514C5.56828 0.313692 4.64735 0.470591 3.8151 0.791211C2.98285 1.11183 2.31774 1.59958 1.81976 2.25447C1.32177 2.90935 1.07278 3.73136 1.07278 4.72051C1.07278 5.42315 1.18875 6.0064 1.42069 6.47028C1.65945 6.92733 1.95619 7.2957 2.31092 7.57539C2.66565 7.85508 3.03061 8.06997 3.4058 8.22004C3.78782 8.37012 4.12208 8.48609 4.40859 8.56795L8.23557 9.69353C8.80859 9.86407 9.1906 10.079 9.38161 10.3382C9.57262 10.5906 9.66812 10.8669 9.66812 11.167C9.66812 11.5763 9.52828 11.9208 9.24859 12.2005C8.97572 12.4802 8.6244 12.6917 8.19463 12.8349C7.76487 12.9782 7.32146 13.0498 6.8644 13.0498C6.0458 13.0498 5.31588 12.8213 4.67464 12.3642C4.0334 11.9072 3.61045 11.2557 3.4058 10.4098L0.499756 10.8396C0.649833 11.8355 1.00456 12.6951 1.56394 13.4182C2.13014 14.1345 2.84983 14.687 3.72301 15.0759C4.60301 15.4579 5.58875 15.6489 6.68022 15.6489Z" fill="#0B0F19"/>
<path d="M15.0484 2.75586H17.8316V0.300049H15.0484V2.75586ZM15.0484 15.3419H17.8316V4.29074H15.0484V15.3419Z" fill="#0B0F19"/>
<path d="M21.104 15.3419H23.8872V0.300049H21.104V15.3419Z" fill="#0B0F19"/>
<path d="M27.1596 2.75586H29.9428V0.300049H27.1596V2.75586ZM27.1596 15.3419H29.9428V4.29074H27.1596V15.3419Z" fill="#0B0F19"/>
<path d="M37.8812 15.6489C39.1637 15.6489 40.2415 15.3317 41.1147 14.6972C41.9879 14.0628 42.5813 13.159 42.8951 11.9856L40.0505 11.3921C39.8868 11.9242 39.6412 12.3335 39.3137 12.62C38.9863 12.9066 38.5088 13.0498 37.8812 13.0498C37.0421 13.0498 36.4077 12.7531 35.9779 12.1596C35.555 11.5593 35.3435 10.7782 35.3435 9.81632C35.3435 8.89539 35.5448 8.12795 35.9472 7.514C36.3565 6.89322 37.0012 6.58284 37.8812 6.58284C38.3928 6.58284 38.8499 6.74314 39.2523 7.06377C39.6617 7.38439 39.9482 7.83121 40.1119 8.40423L42.8951 7.66748C42.6496 6.52826 42.0834 5.63121 41.1965 4.97633C40.3165 4.31462 39.2251 3.98377 37.9221 3.98377C36.7965 3.98377 35.821 4.23617 34.9956 4.74098C34.1702 5.24578 33.5289 5.93818 33.0719 6.81818C32.6217 7.69818 32.3965 8.69756 32.3965 9.81632C32.3965 10.9214 32.6148 11.914 33.0514 12.794C33.488 13.674 34.1156 14.3698 34.9342 14.8814C35.7528 15.3931 36.7351 15.6489 37.8812 15.6489Z" fill="#0B0F19"/>
<path d="M49.6151 15.6489C50.7202 15.6489 51.6923 15.4033 52.5313 14.9121C53.3772 14.4141 54.0355 13.7286 54.5062 12.8554C54.9837 11.9754 55.2225 10.9624 55.2225 9.81632C55.2225 8.6771 54.9871 7.6709 54.5164 6.79772C54.0457 5.91772 53.3874 5.22873 52.5416 4.73074C51.7025 4.23276 50.727 3.98377 49.6151 3.98377C48.5236 3.98377 47.5583 4.22935 46.7192 4.72051C45.8802 5.21167 45.2219 5.89725 44.7444 6.77725C44.2668 7.65043 44.0281 8.66345 44.0281 9.81632C44.0281 10.9555 44.26 11.9652 44.7239 12.8452C45.1946 13.7183 45.8495 14.4039 46.6885 14.9019C47.5276 15.3999 48.5031 15.6489 49.6151 15.6489ZM49.6151 13.0498C48.7487 13.0498 48.0904 12.7599 47.6402 12.18C47.1968 11.5934 46.9751 10.8055 46.9751 9.81632C46.9751 8.85446 47.1865 8.07679 47.6095 7.4833C48.0392 6.88299 48.7078 6.58284 49.6151 6.58284C50.495 6.58284 51.1568 6.87617 51.6002 7.46283C52.0504 8.0495 52.2755 8.834 52.2755 9.81632C52.2755 10.7645 52.0538 11.5422 51.6104 12.1493C51.1738 12.7497 50.5087 13.0498 49.6151 13.0498Z" fill="#0B0F19"/>
<path d="M57.4522 15.3419H60.2764V9.73446C60.2764 9.04547 60.3514 8.49291 60.5015 8.07679C60.6584 7.66066 60.8563 7.34687 61.095 7.13539C61.3338 6.9171 61.5896 6.77043 61.8625 6.69539C62.1353 6.62035 62.3911 6.58284 62.6299 6.58284C63.2234 6.58284 63.6804 6.71586 64.0011 6.9819C64.3285 7.24795 64.5639 7.5788 64.7071 7.97446C64.8504 8.37012 64.9356 8.76578 64.9629 9.16144C64.9902 9.55027 65.0039 9.8709 65.0039 10.1233V15.3419H67.828V9.14097C67.828 8.95679 67.8144 8.66345 67.7871 8.26097C67.7598 7.85849 67.6814 7.41508 67.5518 6.93074C67.4221 6.43958 67.2038 5.96888 66.8969 5.51865C66.5967 5.06842 66.1738 4.69663 65.628 4.4033C65.0823 4.10997 64.3763 3.9633 63.5099 3.9633C62.7118 3.9633 62.0159 4.09632 61.4225 4.36237C60.829 4.62842 60.331 4.98315 59.9285 5.42656V4.29074H57.4522V15.3419Z" fill="#0B0F19"/>
</svg>
